<?xml version="1.0" encoding="UTF-8"?>
<svg xmlns="http://www.w3.org/2000/svg" width="90" height="80" viewBox="0 0 90 80" fill="none">
  <path d="M90 61.5C90 71.4411 81.9411 79.5 72 79.5L26 79.5C23.2386 79.5 21 77.2614 21 74.5L21 20.5C21 14.9772 25.4772 10.5 31 10.5L85 10.5C87.7614 10.5 90 12.7386 90 15.5L90 61.5Z" fill="#FF6F3B" fill-opacity="0.14"></path>
  <path d="M37.5707 27.432C37.1352 27.432 36.7811 27.0732 36.7811 26.6306V25.2688C36.7811 24.8267 37.1346 24.4674 37.5707 24.4674C38.0062 24.4674 38.3603 24.8262 38.3603 25.2688V26.6306C38.3603 27.0732 38.0063 27.432 37.5707 27.432Z" fill="#10373E"></path>
  <path d="M34.251 27.432C33.8155 27.432 33.4614 27.0732 33.4614 26.6306V25.2688C33.4614 24.8267 33.8149 24.4674 34.251 24.4674C34.6865 24.4674 35.0406 24.8262 35.0406 25.2688V26.6306C35.04 27.0732 34.6871 27.432 34.251 27.432Z" fill="#10373E"></path>
  <path d="M30.9317 27.432C30.4961 27.432 30.1421 27.0732 30.1421 26.6306V25.2688C30.1421 24.8267 30.4956 24.4674 30.9317 24.4674C31.3672 24.4674 31.7213 24.8262 31.7213 25.2688V26.6306C31.7213 27.0732 31.3678 27.432 30.9317 27.432Z" fill="#10373E"></path>
  <path d="M37.5707 33.0013C37.1352 33.0013 36.7811 32.6425 36.7811 32.1999V30.8386C36.7811 30.3966 37.1346 30.0372 37.5707 30.0372C38.0062 30.0372 38.3603 30.396 38.3603 30.8386V32.1999C38.3603 32.6425 38.0063 33.0013 37.5707 33.0013Z" fill="#10373E"></path>
  <path d="M34.251 33.0013C33.8155 33.0013 33.4614 32.6425 33.4614 32.1999V30.8386C33.4614 30.3966 33.8149 30.0372 34.251 30.0372C34.6865 30.0372 35.0406 30.396 35.0406 30.8386V32.1999C35.04 32.6425 34.6871 33.0013 34.251 33.0013Z" fill="#10373E"></path>
  <path d="M30.9317 33.0013C30.4961 33.0013 30.1421 32.6425 30.1421 32.1999V30.8386C30.1421 30.3966 30.4956 30.0372 30.9317 30.0372C31.3672 30.0372 31.7213 30.396 31.7213 30.8386V32.1999C31.7213 32.6425 31.3678 33.0013 30.9317 33.0013Z" fill="#10373E"></path>
  <path d="M37.5707 38.5706C37.1352 38.5706 36.7811 38.2118 36.7811 37.7692V36.4073C36.7811 35.9653 37.1346 35.606 37.5707 35.606C38.0062 35.606 38.3603 35.9647 38.3603 36.4073V37.7692C38.3603 38.2118 38.0063 38.5706 37.5707 38.5706Z" fill="#10373E"></path>
  <path d="M34.251 38.5706C33.8155 38.5706 33.4614 38.2118 33.4614 37.7692V36.4073C33.4614 35.9653 33.8149 35.606 34.251 35.606C34.6865 35.606 35.0406 35.9647 35.0406 36.4073V37.7692C35.04 38.2118 34.6871 38.5706 34.251 38.5706Z" fill="#10373E"></path>
  <path d="M30.9317 38.5706C30.4961 38.5706 30.1421 38.2118 30.1421 37.7692V36.4073C30.1421 35.9653 30.4956 35.606 30.9317 35.606C31.3672 35.606 31.7213 35.9647 31.7213 36.4073V37.7692C31.7213 38.2118 31.3678 38.5706 30.9317 38.5706Z" fill="#10373E"></path>
  <path d="M37.5707 44.1387C37.1352 44.1387 36.7811 43.7799 36.7811 43.3373V41.9754C36.7811 41.5334 37.1346 41.1741 37.5707 41.1741C38.0062 41.1741 38.3603 41.5328 38.3603 41.9754V43.3373C38.3603 43.7799 38.0063 44.1387 37.5707 44.1387Z" fill="#10373E"></path>
  <path d="M34.251 44.1387C33.8155 44.1387 33.4614 43.7799 33.4614 43.3373V41.9754C33.4614 41.5334 33.8149 41.1741 34.251 41.1741C34.6865 41.1741 35.0406 41.5328 35.0406 41.9754V43.3373C35.04 43.7799 34.6871 44.1387 34.251 44.1387Z" fill="#10373E"></path>
  <path d="M30.9317 44.1387C30.4961 44.1387 30.1421 43.7799 30.1421 43.3373V41.9754C30.1421 41.5334 30.4956 41.1741 30.9317 41.1741C31.3672 41.1741 31.7213 41.5328 31.7213 41.9754V43.3373C31.7213 43.7799 31.3678 44.1387 30.9317 44.1387Z" fill="#10373E"></path>
  <path d="M37.5707 49.7078C37.1352 49.7078 36.7811 49.3491 36.7811 48.9065V47.5451C36.7811 47.1031 37.1346 46.7438 37.5707 46.7438C38.0062 46.7438 38.3603 47.1025 38.3603 47.5451V48.9065C38.3603 49.3485 38.0063 49.7078 37.5707 49.7078Z" fill="#10373E"></path>
  <path d="M34.251 49.7078C33.8155 49.7078 33.4614 49.3491 33.4614 48.9065V47.5451C33.4614 47.1031 33.8149 46.7438 34.251 46.7438C34.6865 46.7438 35.0406 47.1025 35.0406 47.5451V48.9065C35.04 49.3485 34.6871 49.7078 34.251 49.7078Z" fill="#10373E"></path>
  <path d="M30.9317 49.7078C30.4961 49.7078 30.1421 49.3491 30.1421 48.9065L30.1426 47.5451C30.1426 47.1031 30.4961 46.7438 30.9322 46.7438C31.3678 46.7438 31.7218 47.1025 31.7218 47.5451V48.9065C31.7213 49.3485 31.3678 49.7078 30.9317 49.7078V49.7078Z" fill="#10373E"></path>
  <path d="M8.37566 55.2501C8.37566 55.6921 8.72916 56.0515 9.16525 56.0515H57.2486C57.6841 56.0515 58.0382 55.6927 58.0382 55.2501C58.0382 54.8081 57.6847 54.4487 57.2486 54.4487H55.789V31.4402C55.789 30.9982 55.4355 30.6389 54.9994 30.6389L42.1078 30.6394V14.0515C42.1078 13.771 41.9636 13.5117 41.7279 13.3664C41.4928 13.2205 41.1988 13.2116 40.9543 13.3407L26.2976 21.0856C26.036 21.2236 25.8731 21.4974 25.8731 21.7964V36.2856H11.6885C11.253 36.2856 10.899 36.6444 10.899 37.087V54.4489H9.16349C8.72796 54.4483 8.375 54.8071 8.375 55.2497L8.37566 55.2501ZM42.1081 42.7765H54.2106V54.4494L42.1081 54.4488V42.7765ZM42.1081 37.2077H54.2106V41.1743L42.1081 41.1738V37.2077ZM42.1081 32.2413H54.2106V35.6061H42.1081V32.2413ZM27.4514 22.283L40.5284 15.3724V54.4481H27.4514V22.283ZM16.3813 48.0483C16.3813 46.3852 17.6797 45.0317 19.2759 45.0317C20.8721 45.0317 22.171 46.3846 22.171 48.0483V54.4491H16.3813V48.0483ZM12.4781 37.8881H25.8728V54.4488H23.7501V48.048C23.7501 45.5014 21.7438 43.4293 19.2759 43.4293C16.8091 43.4293 14.8027 45.5008 14.8027 48.048V54.4488H12.4781V37.8881Z" fill="#10373E"></path>
</svg>
