<?xml version="1.0" encoding="UTF-8"?>
<svg xmlns="http://www.w3.org/2000/svg" width="65" height="57" viewBox="0 0 65 57" fill="none">
  <path d="M65 38.5C65 48.4411 56.9411 56.5 47 56.5L20 56.5C17.2386 56.5 15 54.2614 15 51.5L15 17.5C15 11.9772 19.4772 7.5 25 7.5L60 7.5C62.7614 7.5 65 9.73858 65 12.5L65 38.5Z" fill="#E8F3F5"></path>
  <path d="M23.99 10.5C20.4187 10.5 17.5114 13.4339 17.5114 17.0204C17.5114 19.2892 18.6765 21.2925 20.4358 22.4602C18.3109 23.1707 16.4723 24.4985 15.1238 26.2357C14.3782 25.6622 13.5451 25.201 12.647 24.8705C14.0089 23.8595 14.8989 22.2354 14.8989 20.41C14.8989 17.3683 12.4388 14.8782 9.41547 14.8782C6.39215 14.8782 3.93208 17.3683 3.93208 20.41C3.93208 22.2364 4.82277 23.8613 6.18579 24.8723C2.57721 26.2039 0 29.6903 0 33.7933V36.6755C0.000369347 36.8952 0.0882567 37.1057 0.244089 37.2604C0.39992 37.4155 0.610779 37.5019 0.830496 37.5012H13.4755C13.5061 37.5045 13.5368 37.5063 13.5674 37.506H34.4133C34.4439 37.5063 34.4749 37.5045 34.5052 37.5012H47.1511C47.6057 37.4993 47.9739 37.1304 47.975 36.6755V33.7933C47.975 29.6903 45.4022 26.2039 41.7955 24.872C43.1585 23.8613 44.0492 22.236 44.0492 20.4096C44.0492 17.3679 41.5892 14.8778 38.5658 14.8778C35.5426 14.8778 33.0824 17.3679 33.0824 20.4096C33.0824 22.235 33.9728 23.8594 35.3346 24.8702C34.4347 25.2014 33.6013 25.6641 32.8546 26.239C31.5067 24.5008 29.6707 23.1711 27.5459 22.4602C29.3047 21.2925 30.4703 19.2892 30.4703 17.0204C30.4703 13.4339 27.5614 10.5 23.9902 10.5H23.99ZM23.99 12.1544C26.661 12.1544 28.8142 14.3221 28.8142 17.0204C28.8142 19.6976 26.6945 21.8442 24.0531 21.8786C24.0321 21.8786 24.0114 21.8757 23.99 21.8757C23.9686 21.8757 23.9483 21.8786 23.9268 21.8786C21.2854 21.8446 19.1672 19.6977 19.1672 17.0204C19.1672 14.3217 21.3186 12.1544 23.9896 12.1544H23.99ZM9.41556 16.5325C11.5348 16.5325 13.2446 18.2525 13.2446 20.4099C13.2446 22.5528 11.557 24.2655 9.45763 24.2888C9.4436 24.2888 9.42994 24.2873 9.41553 24.2873C9.4015 24.2873 9.38784 24.2888 9.37344 24.2888C7.2741 24.2655 5.58647 22.5525 5.58647 20.4099C5.58647 18.2526 7.29623 16.5325 9.4155 16.5325H9.41556ZM38.5653 16.5325C40.6846 16.5325 42.3944 18.2525 42.3944 20.4099C42.3944 22.5528 40.7067 24.2655 38.6074 24.2888C38.5934 24.2888 38.5797 24.2873 38.5653 24.2873C38.5513 24.2873 38.5376 24.2888 38.5232 24.2888C36.4239 24.2655 34.7363 22.5525 34.7363 20.4099C34.7363 18.2526 36.446 16.5325 38.5653 16.5325H38.5653ZM23.9266 23.5329C23.9477 23.5332 23.9684 23.5358 23.9898 23.5358C24.0108 23.5358 24.0315 23.5329 24.0529 23.5329C29.3502 23.5668 33.5896 27.8427 33.5896 33.1953L33.5892 35.8511H14.3911V33.1953C14.3911 27.8422 18.6293 23.5669 23.9259 23.5329H23.9266ZM9.35223 25.945C9.37327 25.9454 9.39395 25.948 9.41537 25.948C9.43679 25.948 9.4571 25.945 9.47852 25.945C11.2702 25.9594 12.9054 26.5772 14.2074 27.6108C13.2757 29.2593 12.7369 31.1621 12.7369 33.1957V35.8453H1.65369V33.7932C1.65369 29.4431 5.07396 25.979 9.35203 25.9446L9.35223 25.945ZM38.502 25.945C38.5234 25.9454 38.5437 25.948 38.5652 25.948C38.5866 25.948 38.6069 25.945 38.6283 25.945C42.9064 25.979 46.3266 29.4436 46.3266 33.7936V35.8453H35.2377L35.2374 33.1957C35.2374 31.1632 34.7001 29.2619 33.7702 27.6137C35.0726 26.5787 36.7089 25.9594 38.5021 25.945H38.502Z" fill="#10373E"></path>
</svg>
