<?xml version="1.0" encoding="UTF-8"?>
<svg xmlns="http://www.w3.org/2000/svg" width="90" height="80" viewBox="0 0 90 80" fill="none">
  <path d="M90 61.5C90 71.4411 81.9411 79.5 72 79.5L25.7692 79.5C23.0078 79.5 20.7692 77.2614 20.7692 74.5L20.7692 20.375C20.7692 14.8522 25.2464 10.375 30.7692 10.375L85 10.375C87.7614 10.375 90 12.6136 90 15.375L90 61.5Z" fill="#FF6F3B" fill-opacity="0.14"></path>
  <path d="M28.9879 12.5C24.6726 12.5 21.1596 16.1674 21.1596 20.6504C21.1596 23.4865 22.5674 25.9906 24.6932 27.4502C22.1257 28.3383 19.904 29.9981 18.2745 32.1696C17.3736 31.4527 16.367 30.8762 15.2818 30.4631C16.9274 29.1993 18.0028 27.1692 18.0028 24.8875C18.0028 21.0853 15.0302 17.9727 11.377 17.9727C7.72385 17.9727 4.75126 21.0853 4.75126 24.8875C4.75126 27.1705 5.82752 29.2016 7.47449 30.4654C3.11412 32.1299 0 36.4878 0 41.6166V45.2193C0.000446295 45.4939 0.106644 45.7571 0.294941 45.9505C0.483236 46.1443 0.738025 46.2523 1.00352 46.2514H16.2828C16.3199 46.2556 16.3569 46.2579 16.394 46.2574H41.5827C41.6197 46.2579 41.6572 46.2556 41.6938 46.2514H56.9743C57.5236 46.2491 57.9684 45.788 57.9698 45.2193V41.6166C57.9698 36.4878 54.861 32.1299 50.5029 30.4649C52.1499 29.2016 53.2262 27.17 53.2262 24.887C53.2262 21.0848 50.2536 17.9723 46.6004 17.9723C42.9473 17.9723 39.9746 21.0848 39.9746 24.887C39.9746 27.1687 41.0504 29.1992 42.696 30.4627C41.6086 30.8767 40.6015 31.4551 39.6993 32.1737C38.0706 30.001 35.8521 28.3388 33.2847 27.4502C35.4099 25.9906 36.8182 23.4865 36.8182 20.6504C36.8182 16.1674 33.3034 12.5 28.9881 12.5H28.9879ZM28.9879 14.5679C32.2153 14.5679 34.8171 17.2775 34.8171 20.6504C34.8171 23.997 32.2559 26.6802 29.0642 26.7232C29.0388 26.7232 29.0138 26.7195 28.9879 26.7195C28.962 26.7195 28.9375 26.7232 28.9116 26.7232C25.7199 26.6808 23.1604 23.9971 23.1604 20.6504C23.1604 17.2771 25.76 14.5679 28.9874 14.5679H28.9879ZM11.3771 20.0406C13.9379 20.0406 16.0039 22.1906 16.0039 24.8874C16.0039 27.566 13.9647 29.7069 11.428 29.7359C11.411 29.7359 11.3945 29.7341 11.3771 29.7341C11.3601 29.7341 11.3436 29.7359 11.3262 29.7359C8.78954 29.7068 6.75032 27.5655 6.75032 24.8874C6.75032 22.1908 8.81627 20.0406 11.3771 20.0406H11.3771ZM46.5998 20.0406C49.1606 20.0406 51.2265 22.1906 51.2265 24.8874C51.2265 27.566 49.1873 29.7069 46.6506 29.7359C46.6337 29.7359 46.6172 29.7341 46.5998 29.7341C46.5828 29.7341 46.5663 29.7359 46.5489 29.7359C44.0122 29.7068 41.973 27.5655 41.973 24.8874C41.973 22.1908 44.0389 20.0406 46.5997 20.0406H46.5998ZM28.9114 28.791C28.9368 28.7915 28.9618 28.7947 28.9877 28.7947C29.0131 28.7947 29.0381 28.791 29.064 28.791C35.4648 28.8335 40.5874 34.1783 40.5874 40.869L40.587 44.1889H17.3893V40.869C17.3893 34.1778 22.5104 28.8336 28.9104 28.791H28.9114ZM11.3006 31.8062C11.326 31.8067 11.351 31.8099 11.3769 31.8099C11.4028 31.8099 11.4273 31.8062 11.4532 31.8062C13.6182 31.8242 15.594 32.5965 17.1673 33.8885C16.0415 35.9491 15.3905 38.3276 15.3905 40.8696V44.1815H1.99821V41.6165C1.99821 36.1788 6.13103 31.8487 11.3004 31.8058L11.3006 31.8062ZM46.5233 31.8062C46.5491 31.8067 46.5737 31.8099 46.5996 31.8099C46.6254 31.8099 46.65 31.8062 46.6759 31.8062C51.8452 31.8487 55.978 36.1794 55.978 41.6169V44.1815H42.5789L42.5785 40.8696C42.5785 38.329 41.9292 35.9523 40.8056 33.8921C42.3794 32.5983 44.3566 31.8242 46.5234 31.8062H46.5233Z" fill="#10373E"></path>
</svg>
