<?xml version="1.0" encoding="UTF-8"?>
<svg xmlns="http://www.w3.org/2000/svg" width="91" height="80" viewBox="0 0 91 80" fill="none">
  <path d="M90.5 61.5C90.5 71.4411 82.4411 79.5 72.5 79.5L26.2692 79.5C23.5078 79.5 21.2692 77.2614 21.2692 74.5L21.2692 20.5C21.2692 14.9772 25.7464 10.5 31.2692 10.5L85.5 10.5C88.2614 10.5 90.5 12.7386 90.5 15.5L90.5 61.5Z" fill="#FF6F3B" fill-opacity="0.14"></path>
  <path d="M39.584 33.9966C39.2516 33.9966 38.9429 33.9028 38.6688 33.752V33.756C38.6688 34.2926 38.4655 34.7967 38.0967 35.1741C37.7278 35.5526 37.2371 35.7612 36.7147 35.7612C36.3774 35.7612 36.0648 35.6651 35.7877 35.5102C35.7598 36.0012 35.5685 36.4601 35.2273 36.8106C34.8585 37.1891 34.3677 37.3977 33.845 37.3977C32.8065 37.3977 31.9631 36.56 31.9023 35.5099C31.581 35.6881 31.2177 35.7816 30.843 35.7569C29.8214 35.6881 29.0213 34.7823 29.0213 33.6942V24.6748L28.0205 26.4541C27.6393 27.1346 26.9258 27.5571 26.1575 27.5571C25.7832 27.5571 25.4134 27.4563 25.0859 27.2638C24.678 27.0211 24.3863 26.6316 24.265 26.1656C24.143 25.6994 24.2061 25.2118 24.4419 24.7938C24.4422 24.7938 27.7164 18.9753 27.9162 18.6179C27.9399 18.5642 28.0076 18.4083 28.0651 18.2755C28.1201 18.1486 28.1672 18.0185 28.2125 17.8876C29.1999 15.027 31.6448 13.25 34.5934 13.25C38.4224 13.25 41.5376 16.7165 41.5376 20.9774L41.5379 31.991C41.5379 32.527 41.335 33.0307 40.9665 33.4096C40.5976 33.788 40.1069 33.9966 39.5839 33.9966L39.584 33.9966ZM34.5934 14.3155C32.0598 14.3155 30.0403 15.7842 29.1911 18.244C29.1368 18.4002 29.0802 18.5564 29.0142 18.7086C28.8226 19.1495 28.8226 19.1495 28.7687 19.2129L28.7615 19.2066C28.4942 19.7242 27.6999 21.1357 25.3409 25.3271C25.244 25.499 25.2183 25.6986 25.2678 25.8895C25.3178 26.0804 25.4379 26.2413 25.6041 26.3398C26.1199 26.6438 26.8263 26.4476 27.1203 25.9219L29.091 22.4207C29.2087 22.2121 29.4468 22.1096 29.6751 22.173C29.9021 22.2354 30.0599 22.4467 30.0599 22.6877V33.6945C30.0599 34.2139 30.4417 34.6621 30.9111 34.6938C31.1817 34.7085 31.434 34.6153 31.6237 34.4211C31.796 34.2442 31.891 34.0086 31.891 33.7566V26.558C31.891 26.2636 32.1236 26.0249 32.4104 26.0249C32.6973 26.0249 32.9298 26.2632 32.9298 26.558L32.9295 35.3928C32.9295 35.9108 33.3403 36.3324 33.8451 36.3324C34.0903 36.3324 34.3206 36.2349 34.4933 36.058C34.6656 35.8808 34.7606 35.6445 34.7606 35.3928V26.558C34.7606 26.2636 34.9928 26.0249 35.28 26.0249C35.5669 26.0249 35.7994 26.2632 35.7994 26.558L35.7991 33.6738V33.7565C35.7991 34.2742 36.2099 34.6957 36.715 34.6957C36.9599 34.6957 37.1895 34.5979 37.3632 34.4204C37.5356 34.2438 37.6306 34.0082 37.6306 33.7562V26.5576C37.6306 26.2632 37.8628 26.0246 38.15 26.0246C38.4368 26.0246 38.6694 26.2629 38.6694 26.5576L38.6687 31.9913C38.6687 32.5096 39.0795 32.9312 39.5839 32.9312C39.8295 32.9312 40.0591 32.8334 40.2315 32.6568C40.4045 32.4792 40.4992 32.2429 40.4992 31.9913L40.4995 20.9776C40.4995 17.3046 37.8501 14.3157 34.5934 14.3157L34.5934 14.3155Z" fill="#10373E"></path>
  <path d="M19.1769 41.6515L26.714 37.0115C27.6227 36.4514 28.792 36.6894 29.3748 37.5535C29.5875 37.8682 29.6961 38.235 29.713 38.6086C29.994 38.458 30.2998 38.3763 30.611 38.3763C30.7704 38.3763 30.9304 38.3966 31.0885 38.437C31.5949 38.5668 32.0216 38.8916 32.2899 39.3508C32.5586 39.8107 32.637 40.3497 32.5105 40.8688C32.3937 41.3491 32.1091 41.7533 31.7133 42.0307C31.9901 42.1982 32.2288 42.4268 32.3986 42.7179C32.6672 43.1778 32.7456 43.7165 32.6194 44.2362C32.4929 44.7552 32.1764 45.1931 31.7283 45.4692L31.7257 45.4708C31.9976 45.638 32.2321 45.8643 32.3999 46.151C32.6689 46.611 32.7472 47.15 32.6207 47.6696C32.4939 48.189 32.1774 48.6269 31.7299 48.9026L22.527 54.5683C20.8094 55.6253 18.8237 55.9901 16.9367 55.5946C15.0327 55.1954 13.4559 54.0723 12.4972 52.4322C10.9799 49.8372 11.2073 46.7712 13.0894 44.4312C13.1756 44.3243 13.2605 44.2155 13.3376 44.1027C13.4192 43.9836 13.5145 43.8434 13.547 43.7953C13.7419 43.4382 16.9208 37.5606 16.9205 37.5613C17.2415 36.9668 17.8432 36.6304 18.4637 36.6307C18.7532 36.6307 19.0469 36.7038 19.3178 36.858C19.645 37.0456 19.9199 37.3189 20.1121 37.6484C20.5073 38.3242 20.5212 39.17 20.1492 39.8545L19.1769 41.6515ZM19.2221 38.1963C19.1213 38.0238 18.9827 37.8862 18.8133 37.7888C18.463 37.5899 18.0219 37.7194 17.8291 38.0775C15.5544 42.2829 14.779 43.7161 14.4797 44.2261L14.4866 44.2278C14.4615 44.3132 14.4615 44.3132 14.1877 44.7147C14.0946 44.8506 13.9935 44.9811 13.8904 45.1096C12.2719 47.1218 12.084 49.6541 13.3872 51.8839C14.1945 53.2651 15.5286 54.2119 17.1441 54.5504C18.7771 54.8912 20.4983 54.5741 21.9922 53.6543L31.1959 47.9883C31.406 47.8592 31.5544 47.6539 31.6136 47.4106C31.6727 47.1676 31.636 46.9149 31.5098 46.6993C31.2503 46.2554 30.6866 46.1096 30.254 46.3769L25.7137 49.1722C25.4678 49.3237 25.1484 49.2423 25.0011 48.9896C24.8534 48.7373 24.9331 48.4099 25.179 48.2584L29.7197 45.4631L31.1943 44.5552C31.4044 44.4257 31.5531 44.2205 31.6123 43.9778C31.6715 43.7345 31.6347 43.4815 31.5085 43.2662C31.2486 42.822 30.685 42.6775 30.2528 42.9438L24.2374 46.647C23.9909 46.7988 23.6725 46.7167 23.5248 46.4644C23.3772 46.2121 23.4572 45.8846 23.7027 45.7331L31.0854 41.1883C31.2955 41.0588 31.4438 40.8539 31.503 40.6105C31.5622 40.3676 31.5254 40.1149 31.3996 39.8993C31.2737 39.684 31.0737 39.5318 30.8366 39.4711C30.5982 39.4103 30.3529 39.448 30.1435 39.5769L28.7768 40.4183C28.7765 40.4183 28.7765 40.4186 28.7762 40.4186H28.7758L22.7608 44.1218C22.5143 44.2739 22.1956 44.1918 22.0482 43.9392C21.9006 43.6869 21.9806 43.3594 22.2261 43.2079L28.2415 39.5048C28.4516 39.3753 28.6002 39.17 28.6594 38.9274C28.7245 38.661 28.675 38.3887 28.5209 38.1604C28.2535 37.7635 27.6817 37.6581 27.2482 37.9254L18.0511 43.5874C17.8498 43.7109 17.5919 43.6809 17.4231 43.5137C17.2539 43.3461 17.2159 43.0828 17.3297 42.8722L19.2422 39.3363C19.434 38.9828 19.4266 38.5462 19.222 38.1964L19.2221 38.1963Z" fill="#10373E"></path>
  <path d="M55.1926 52.4317C54.2341 54.0721 52.6577 55.195 50.7535 55.5942C48.8661 55.989 46.8811 55.6249 45.1632 54.5678L35.9594 48.9019C35.5116 48.6262 35.1948 48.1883 35.0679 47.6682C34.9421 47.1492 35.0208 46.6102 35.2891 46.1509C35.4566 45.8639 35.6914 45.6376 35.9636 45.4704L35.961 45.4687C35.5132 45.193 35.1964 44.7551 35.0702 44.2358C34.9434 43.7164 35.0221 43.177 35.2907 42.7172C35.4638 42.4218 35.7009 42.1908 35.9715 42.027C35.5786 41.7496 35.2956 41.3468 35.1792 40.8688C35.0523 40.3491 35.131 39.81 35.3997 39.3508C35.668 38.8912 36.0951 38.5664 36.6012 38.4366C36.7592 38.3959 36.9196 38.3759 37.0783 38.3759C37.3899 38.3762 37.6956 38.4573 37.9766 38.6082C37.9938 38.2347 38.1021 37.8679 38.3148 37.5531C38.898 36.6897 40.0663 36.4507 40.9763 37.0111L48.5132 41.6504L47.5417 39.8547C47.1689 39.1692 47.1826 38.3234 47.5778 37.6472C47.7703 37.3181 48.0455 37.0448 48.3743 36.8555C48.6446 36.702 48.9373 36.6292 49.2261 36.6292C49.8463 36.6296 50.4487 36.9653 50.7693 37.5598C51.8869 39.6262 53.9957 43.5232 54.144 43.7952C54.1756 43.8423 54.2708 43.9825 54.3525 44.1016C54.4302 44.2148 54.5141 44.3229 54.601 44.4304C56.4829 46.7714 56.7098 49.837 55.1926 52.4317L55.1926 52.4317ZM53.7997 45.1096C53.6962 44.9811 53.5948 44.85 53.5024 44.7148C53.2214 44.3056 53.2142 44.2949 53.1931 44.1878C52.8646 43.6301 52.0632 42.1495 49.8604 38.0769C49.6672 37.7194 49.2281 37.5889 48.8785 37.7872C48.7064 37.8859 48.5682 38.0238 48.4674 38.1963C48.2631 38.5458 48.2553 38.9824 48.4482 39.3368L50.3599 42.8717C50.4741 43.0827 50.4361 43.3457 50.2673 43.5132C50.0988 43.6811 49.8412 43.7105 49.6389 43.587L40.4418 37.925C40.0082 37.6583 39.4368 37.7628 39.1688 38.16C39.0146 38.3883 38.9655 38.6606 39.0299 38.9266C39.0891 39.1696 39.2377 39.3745 39.4482 39.504C39.4488 39.5044 39.4491 39.505 39.4498 39.5054L45.4632 43.2075C45.7091 43.359 45.7888 43.6861 45.6411 43.9387C45.4935 44.1907 45.175 44.2732 44.9285 44.1213L37.5459 39.5765C37.3364 39.4476 37.0899 39.4096 36.8531 39.4707C36.6157 39.5314 36.416 39.6836 36.2901 39.8996C36.1639 40.1148 36.1275 40.3675 36.186 40.6105C36.2452 40.8535 36.3939 41.0587 36.604 41.1882L38.0406 42.0724L43.9863 45.7331C44.2322 45.8846 44.3119 46.2117 44.1642 46.4644C44.0165 46.7164 43.6981 46.7985 43.4516 46.647L37.4369 42.9438C37.0043 42.6768 36.441 42.8217 36.1808 43.2663C36.0546 43.4819 36.0182 43.7345 36.0768 43.9775C36.1359 44.2205 36.2846 44.4254 36.495 44.5553L37.9697 45.4631L42.5097 48.2584C42.7556 48.4099 42.8353 48.737 42.6876 48.9896C42.5399 49.2416 42.2215 49.3244 41.975 49.1722L37.435 46.3769C37.2255 46.2481 36.98 46.2101 36.7419 46.2711C36.5051 46.3319 36.3047 46.4841 36.1789 46.6993C36.053 46.915 36.0163 47.168 36.0748 47.4106C36.134 47.6536 36.2826 47.8585 36.4931 47.9883L45.6968 53.6543C47.1904 54.5738 48.9128 54.8922 50.5449 54.5504C52.16 54.212 53.4942 53.2651 54.3014 51.884C55.606 49.6537 55.4183 47.1212 53.8002 45.1096L53.7997 45.1096Z" fill="#10373E"></path>
</svg>
